<?xml version="1.0" encoding="UTF-8"?>
<svg xmlns="http://www.w3.org/2000/svg" id="Warstwa_1" data-name="Warstwa 1" viewBox="0 0 1896.58 1524.77">
  <defs>
    <style>.cls-1{fill:#0d5676;}.cls-2{fill:#f9b718;}.cls-3{fill:#fefefe;}</style>
  </defs>
  <path class="cls-1" d="M21.67,1081.81c15.45-6.24,30.88-12.52,46.34-18.72q30.66-12.31,61.37-24.55c.93-.37,1.83-.83,2.57-1.18.32-1.07-.37-1.29-.82-1.56-36.35-21.94-57.85-55-70.81-94.47S43.47,861.32,45.73,820c2-36,8.24-71,23.57-104,11.66-25,26.79-47.64,49.8-63.8,26.71-18.77,56.59-25.61,89-22.91,40.61,3.38,77.15,17.07,109.41,42,30.52,23.57,52.74,53.64,69,88.33a9.51,9.51,0,0,0,2.73,3.75V758.8c0-25.38.08-50.75-.08-76.13,0-3.57,1-4.2,4.32-3.72,46.63,6.71,92.82,16,139.22,24,23.18,4,46.56,6.55,69.84,9.89s46.69,6.27,70.15,8.51c10.39,1,20.78,2.08,31.18,2.86,2.8.21,3.65,1.22,3.29,3.79a20,20,0,0,0,0,2.68q0,148.9-.09,297.81c0,4.22.82,5.55,5.31,5.36q41.34-1.8,82.69-3c3.95-.11,5.16-1.09,5.15-5.24q-.19-144-.22-288c0-4.51,1.25-5.33,5.39-5.1,29,1.6,58.09,2.41,87.16,3,43.58.94,87.16.7,130.73.23,28.63-.32,57.24-1.31,85.81-3.31,4.64-.33,5.33,1.2,5.24,5.33-.28,11.58-.1,23.17-.1,35.81,3.61-3.6,6.46-6.52,9.4-9.35,25.86-24.85,57.22-38.84,91.89-46,22.89-4.74,46-6.9,69.36-3.79,42.67,5.67,75.5,26.82,98.6,63.11,2.21,3.48,4.27,7.06,7.1,11.74V784c0-26.57,0-53.14-.2-79.71,0-3.42,1-4.42,4.29-5,38.58-6.88,77.2-13.57,115.7-20.92,14.88-2.84,30.21-3.36,45.33-5,2.28-.25,3.42.33,3.08,2.81a16.58,16.58,0,0,0,0,2.23q.06,110.18.13,220.33c0,23.14-.15,46.28.28,69.41.41,21.79.08,43.57.28,65.36a5.9,5.9,0,0,0,.87,3.64c1.31-6.82,2.66-13.63,3.93-20.45q15.12-81.06,30.22-162.12,15-80.19,29.91-160.38c2.35-12.59,4.8-25.17,7.06-37.77.43-2.41,1.35-3.37,3.84-3.91q71.45-15.4,142.82-31c5.1-1.11,10.24-2,15.29-3.31,2.77-.7,4-.09,4.47,2.85,4.48,25.84,9.1,51.65,13.66,77.48,7.3,41.38,14.68,82.74,21.87,124.13q12.93,74.45,25.58,148.93,11.1,65.24,22,130.51,9.76,58.89,19.21,117.82c5.91,36.64,11.68,73.29,17.56,109.93,1.07,6.66,1.16,6.76-5.28,5.44-55.32-11.33-110.87-21.47-166.08-33.29-2.69-.58-3.95-1.64-4.39-4.48q-7.65-50.16-15.52-100.31c-.58-3.68-1.23-7.35-1.75-11-1-6.82-.93-6.8-7.51-7.54-8.44-1-16.9-1.87-25.32-3-2.54-.34-3.62,0-4.14,2.85-6.16,34-12.51,68-18.78,102-1,5.62-1,5.62-6.57,4.43-83.67-17.78-167.49-34.76-251.65-50.06-5.27-1-10.52-2.09-15.81-3-2.17-.36-3-1.25-2.89-3.49.17-3.87,0-7.76,0-11.64v-65.13c-1.89-.73-2,.54-2.39,1.13-25.85,37.91-62.17,57.83-107.42,61.73-50.29,4.33-97.21-6.2-140-33.47-4.9-3.12-9.58-6.61-14.18-10.16s-8.7-7.19-13.3-11c-.83,1.63-.46,3.22-.45,4.75,0,8.66,0,17.32.17,26,0,2.25-.46,3.1-3,3-20-.72-39.94-1.31-59.91-1.9-11.18-.33-22.36-.57-33.54-.84-35.52-.88-71-.86-106.56-.52-50.86.48-101.67,2.27-152.41,5.85-42.26,3-84.42,6.89-126.45,12.12q-39.06,4.86-78,10.77-81.28,12.32-161.94,28.29c-3.61.72-3.48-1.11-3.47-3.59q.06-34,0-68.07v-5.46c-2,1.39-2.46,3.12-3.27,4.56-34.59,61.69-85.76,101.75-154.91,117.88-33.39,7.79-66.37,6.59-97.91-8.37-31-14.7-53.47-38.44-70.58-67.68-18.28-31.24-29.16-65.13-35.53-100.58-1.66-9.24-3-18.54-4.51-27.81-.12-.72-.1-1.48-.9-1.87Zm1857,213.24.53.31-.17-.71c-.18-1.93-.23-3.87-.54-5.77q-12.78-79-25.63-157.94-13.42-81.62-27.21-163.15-13.44-79.08-27.39-158.08Q1785.19,734.86,1772,660c-.53-3-1.3-4.08-4.82-3.28q-49.25,11.16-98.59,21.89c-8.73,1.91-8.66,1.78-10.3,10.59q-13.56,72.72-27.2,145.41-14.14,75.55-28.24,151.12-13.32,71.38-26.59,142.78-9,48.56-18.24,97.08c-.6,3.16.16,4.31,3.39,5,25.87,5.84,51.94,10.69,77.87,16.19,2.44.52,3,0,3.43-2.22,1.27-7.34,2.68-14.66,4-22q7.32-39.56,14.69-79.1c.35-1.88-.08-4.35,3.79-3.86,28,3.57,55.93,6.88,83.92,10.15,2.34.28,2.9,1.35,3.21,3.37,6,38.58,12.06,77.14,17.93,115.74.58,3.8,1.92,5.52,5.77,6.26,24.14,4.65,48.21,9.65,72.35,14.28C1858.45,1291.44,1868.41,1294,1878.66,1295.05ZM194.52,1264.8a121.15,121.15,0,0,0,24.24-2.54q84.18-17.57,131-89.73c19.85-30.52,30.35-64.17,33.13-100.35,2.77-35.9-.75-70.87-15.42-104.17-12.3-27.91-30.82-50-58.8-63.59-15.27-7.41-30.57-14.73-46.12-21.55-15.8-6.93-32.14-12.64-47.28-21.09-21.82-12.19-24.67-32.81-18.78-52.36,2.59-8.61,9-14.23,18.12-15.25,25-2.78,44.16,7,57.86,27.78a95.14,95.14,0,0,1,12.78,30.8c.67,2.86,1.76,4.28,4.81,2.81.66-.32,1.45-.34,2.14-.61,25.93-10.17,52.09-19.69,78.41-28.79,3.35-1.16,3.81-3.14,3-6.2-8.93-35.3-23.56-67.88-47.42-95.65-37.47-43.61-84.79-65.8-142.74-62.51C162,663,143,671.83,127.6,687.09c-18.64,18.47-30.25,41.18-38,66-10,32.24-12.86,65.36-11.9,99a288.6,288.6,0,0,0,13.83,80.78c12.18,37.83,35.18,66,71.05,83.82a328.71,328.71,0,0,0,62.74,23.11c11.09,2.91,22.28,5.46,32.49,11,13.19,7.21,18.1,19,17.83,33.16-.28,14.64-6.2,26.2-20,32.81-6.68,3.2-13.76,4.8-21,5.81-21.18,2.93-38.54-3.26-51-21.29-8.05-11.65-12.05-24.87-14.88-38.49-.69-3.31-1.6-3.69-4.65-2.6-35.09,12.48-69.41,26.92-103.85,41-2.4,1-2.55,2-2.18,4.3,1.77,10.59,3.9,21.1,6.71,31.46,8.55,31.5,20.82,61.27,42.14,86.49C129.47,1250.15,157.85,1265.16,194.52,1264.8ZM1262.31,1183c3.13,0,6.27.09,9.4,0,2.68-.11,5.34-.46,8-.72,44.24-4.28,75.61-26.54,93.77-67.19,8-18,11.09-37,12.11-56.46,1.74-33.2-3-65.12-19.38-94.59-11.69-21-28-36.75-51-45.3-17.9-6.65-36.11-12.13-54.54-17-13.37-3.54-27.11-5.84-39.9-11.37-10.9-4.72-15.65-12.29-15-23.4s7-19.28,17.81-22.54a64,64,0,0,1,9.11-2.21c17.13-2.46,32.73.44,45,13.72,6,6.45,9.46,14.39,12.72,22.43.73,1.8,1,3.51,4,2.18,26.61-12,53.12-24.19,79.16-37.38,2.26-1.14,2.82-2.27,2-4.86a215.14,215.14,0,0,0-13.92-33.82c-14.2-26.89-34.83-46.16-64.67-54.64-18.14-5.15-36.54-5-55-3-26.23,2.81-51.27,9.74-73.82,23.77-51.9,32.28-73.61,92.06-61.09,149.31,5.37,24.58,17,45.79,37.32,61.35,12.72,9.76,27.17,16.59,41.9,22.79,20.49,8.64,41.93,14.47,63,21.33,9.27,3,18.28,6.66,25,14.14,7.61,8.47,8.84,18.6,5.4,28.87-3.19,9.51-11.7,12.5-20.88,13.54a91.19,91.19,0,0,1-10.71.48c-31.15-.24-53.33-16.09-62.93-44.88-3-9-3-8.89-12.59-7.17-27.57,4.93-55.14,9.88-82.75,14.61-3.2.55-2.94,1.69-2.39,4.09,8.85,38.55,28.21,70.64,59.24,95.31C1180.5,1171.18,1219.61,1182.61,1262.31,1183ZM832.39,962.9v115.54c0,25.68,0,51.35,0,77,0,2.93,0,4.4,3.92,4.2,14.74-.74,29.5-1.13,44.26-1.36q54.84-.87,109.7-.35c10.74.1,21.48.34,32.22.58q28.18.62,56.36,1.36c2.41.07,3-.75,3-3-.1-29.54.86-59.08-.22-88.62-.07-2-.38-3.12-2.69-2.93a38.68,38.68,0,0,1-4-.31c-34.31-.61-68.62-1.29-102.93-1.76-12.08-.16-24.17.09-36.25.39-3.47.09-4.58-.8-4.54-4.43q.3-26.42,0-52.84c-.06-4.11,1-5.17,5.15-5.15,37.31.17,74.62-.07,111.93.75,3.68.08,4.75-.87,4.73-4.62q-.26-39.18,0-78.35c0-4.12-1.19-4.79-5-4.76-37.47.2-74.94.17-112.41.36-3.54,0-4.51-.93-4.46-4.46.19-15.07.26-30.15,0-45.23-.09-4.33,1-5.35,5.35-5.34,46.71.1,93.42.56,140.11-1.27,3.83-.15,5.3-.83,5.26-5.15q-.33-41,0-81.95c0-4.08-1.13-5-4.94-4.72-31,1.81-62,1.83-93.05,2-48.79.25-97.59,0-146.34-2.14-4.49-.2-5.26,1.15-5.25,5.34Q832.52,867.28,832.39,962.9ZM577.08,1183c35.14-5,69.9-9.32,104.78-12.81,37.55-3.75,75.16-6.74,112.85-8.57,3.64-.18,4.76-1,4.74-4.78-.16-29.11-.09-58.22-.09-87.33,0-6.83,0-6.77-7-6.48q-54.07,2.25-108.16,4.43c-9.4.37-9.41.29-9.41-9q0-149.81.08-299.61c0-3.62-.6-4.94-4.65-5.32-29.85-2.82-59.57-6.68-89.22-11.11-3-.46-4.06.09-4,3.46.13,27,0,54,0,81l.06,352ZM1527,877.17h-.53V715.07c0-6.65,0-6.65-6.61-5.67l-.45.07c-30.83,6.16-61.78,11.7-92.78,17-2.86.48-3.8,1.61-3.75,4.61.34,20.59,0,41.18.36,61.78.43,25.66.24,51.34.29,77q.18,96,.33,192.1.14,60.88.37,121.78c0,5.67.37,11.35.1,17-.15,3.17,1.21,4,3.88,4.43,7.94,1.36,15.84,2.87,23.75,4.38,23.85,4.58,47.71,9.12,71.54,13.87,3.62.72,4.68-.06,4.46-3.72-.32-5.21-.25-10.44-.27-15.66q-.36-82.82-.67-165.65C1526.89,984.64,1527,930.91,1527,877.17Zm-1105.2,85v175.52c0,22.08.13,44.17-.12,66.26,0,4.37,1.38,5.14,5,4,.43-.13.87-.21,1.31-.3,30.17-5.61,60.29-11.56,90.73-15.59,3-.4,3.71-1.69,3.69-4.27,0-5.52,0-11,0-16.56q.06-216.93.17-433.85c0-2.66-.51-3.8-3.49-4.32-30.25-5.21-60.45-10.65-90.68-16-6.63-1.17-6.65-1.06-6.65,5.52Z" transform="translate(-21.67 -197.66)"></path>
  <path class="cls-1" d="M930.39,1646.21c-167-3.15-323.37-63.39-455.27-185.11-45.54-42-84-90-116.16-143-8.68-14.29-5-31.17,8.54-39.49s30.34-4,39.09,10.26Q496.94,1436,649.32,1517.23A630.31,630.31,0,0,0,950.75,1590c90-1.28,175.7-21.19,257.21-59.19a620.26,620.26,0,0,0,171.47-118.32,640.73,640.73,0,0,0,46.14-49.93c7.15-8.58,16.19-12.57,27.35-10.4,21.39,4.17,30,28.56,16.14,45.55q-13.3,16.3-27.76,31.6Q1326.75,1551.12,1169.1,1607A677.29,677.29,0,0,1,1017,1641.78C992.18,1644.52,967.33,1645.72,930.39,1646.21Z" transform="translate(-21.67 -197.66)"></path>
  <path class="cls-1" d="M944.1,277.2c104.67.37,204.27,23,298.33,69,127.12,62,225.47,155,295.86,277.63,4.88,8.5,6.86,17.19,3.16,26.47-4.16,10.45-12,16.62-23.25,17.68-12,1.13-21.26-3.82-27.25-14.22-7.88-13.69-15.86-27.32-24.72-40.4q-138-203.64-376.75-263a562.94,562.94,0,0,0-121.6-16.72q-259.29-7-451.24,167.53a593.81,593.81,0,0,0-42.54,43.49c-7.24,8.06-16.41,11.24-27.09,8.88-10.46-2.32-17.52-8.77-20.64-19-3.05-10-.93-19.18,6-27.07A671.63,671.63,0,0,1,512.06,431C597.59,361.49,694.4,315.51,802,292.09,847.14,282.27,895.59,277.27,944.1,277.2Z" transform="translate(-21.67 -197.66)"></path>
  <path class="cls-2" d="M944,1722.43a759.82,759.82,0,0,1-244.33-40.13c-5.68-1.91-9.65-5.18-10.71-11.33a13.26,13.26,0,0,1,5.14-13.47c4.37-3.46,9.21-3.57,14.38-1.81q33.48,11.36,67.92,19.39a725.82,725.82,0,0,0,120.21,17.81q191.14,12,364-70.35a734,734,0,0,0,336.13-326c3.9-7.56,10.69-10.66,17.67-8.27,8.46,2.89,11.85,12,7.5,20.54-7,13.84-14.55,27.39-22.46,40.74A763.58,763.58,0,0,1,1085,1709.35a747.44,747.44,0,0,1-103.45,12.19C969,1722.14,956.52,1722.31,944,1722.43Z" transform="translate(-21.67 -197.66)"></path>
  <path class="cls-2" d="M1198.92,252.23c-.1,9.85-9,16-18.84,12.73-20.81-6.89-41.8-13.13-63.11-18.32a728.11,728.11,0,0,0-116-18.63c-22-1.71-44.08-2.63-66.16-2.31a731.63,731.63,0,0,0-211.63,34.19Q577.23,306.15,461.46,406.35a718.84,718.84,0,0,0-90.64,94.54c-3.46,4.34-7.43,7.42-13.17,7.13a13.28,13.28,0,0,1-12-8c-2.56-5.42-1.68-10.47,2-15.07q14.47-18.24,30.1-35.51Q514,299.06,706.81,235.71a761.35,761.35,0,0,1,264.82-37.53A761.44,761.44,0,0,1,1187.73,238C1195.57,240.68,1199,245,1198.92,252.23Z" transform="translate(-21.67 -197.66)"></path>
  <path class="cls-1" d="M845.14,521.4c0,29.82-.06,59.64.08,89.46,0,3.53-.9,4.72-4.41,4.35-4.85-.52-11.38,2-14.14-1-2.4-2.65-.74-9.06-.74-13.81,0-38.51,0-77-.1-115.51,0-3.63.78-5,4.63-4.75a159.53,159.53,0,0,0,17.9,0c3.6-.2,4.73,1.2,5.59,4.48,6.06,23,12.36,46,18.58,69a6.57,6.57,0,0,0,1.76,3.24V547c0-20.9.08-41.79-.09-62.68,0-3.44,1-4.43,4.29-4.17a78.71,78.71,0,0,0,11.18,0c3-.2,3.73.85,3.71,3.76-.13,18.81-.07,37.61-.07,56.41,0,23.58-.07,47.16.08,70.74,0,3.33-.75,4.4-4.14,4.16a93.06,93.06,0,0,0-13.87,0c-3.42.27-4.53-1.16-5.33-4.17Q858.86,569,847.44,527c-.52-1.94-1.24-3.82-1.87-5.73Z" transform="translate(-21.67 -197.66)"></path>
  <path class="cls-1" d="M908.31,547.82c0-21,.1-42.06-.1-63.08,0-3.81,1.08-4.73,4.74-4.59,11.31.43,22.66-.45,34,.54,15.31,1.33,24.74,10.74,26.1,26.17,1.31,14.87.48,29.8.53,44.7,0,12.21.63,24.44-.46,36.64-1.5,16.9-12.18,26.81-29.14,26.94-10.59.09-21.18-.1-31.77.09-3.07.06-4-.73-3.95-3.89C908.38,590.17,908.31,569,908.31,547.82Zm21.4,0v37.6c0,10.14,0,10.09,10.19,10.15,3.67,0,7.22-.06,9.68-3.37,2.07-2.79,2.29-6,2.29-9.37q0-34.92,0-69.83a30.17,30.17,0,0,0-.26-4.46c-.74-5.1-3.22-7.74-8.34-8.41-3.09-.4-6.27,0-9.37-.38-3.38-.37-4.29.84-4.25,4.2C929.82,518.59,929.71,533.22,929.71,547.84Z" transform="translate(-21.67 -197.66)"></path>
  <path class="cls-1" d="M811.75,536.36c0,17.31.44,34.64-.16,51.93-.41,12.1-5.49,22.4-17.82,26.41-13.23,4.29-26.37,4-37.07-6.65-6.67-6.66-8.09-15.49-8.13-24.4-.15-33.14,0-66.27-.12-99.41,0-3,.67-4.28,3.93-4.08a102,102,0,0,0,13.43,0c3.46-.25,4.2.94,4.18,4.24-.14,24.33-.11,48.66-.06,73,0,9.69-.06,19.4.41,29.07.38,7.8,4.24,11.14,11.27,10.79,6.46-.32,9.85-4.17,9.87-11.83.07-30.9,0-61.79.06-92.69,0-4-1.71-9.12.76-11.65s7.64-.74,11.62-.8c8.09-.13,8.1,0,8.1,8.18v47.91Z" transform="translate(-21.67 -197.66)"></path>
  <path class="cls-1" d="M1018.21,480.23c4,0,8.07.16,12.09-.06,2.67-.15,3.47.79,3.87,3.41,4.29,27.37,8.74,54.72,13.13,82.09,2.47,15.45,4.82,30.92,7.43,46.34.47,2.76-.19,3.28-2.74,3.2-5.22-.17-10.45-.15-15.67,0-2.28.07-3-.7-3.3-3-.72-6.07-1.87-12.08-2.59-18.14-.28-2.41-1-3.35-3.57-3.29-6.41.16-12.84.21-19.25,0-2.74-.1-3.64.93-4,3.43-.79,6-1.93,12.07-2.61,18.13-.27,2.39-1.22,2.91-3.37,2.86-4.47-.13-9-.25-13.42,0-3.11.2-3.37-1-3-3.6Q987.22,575,993,538.4c2.9-18.09,5.9-36.16,8.67-54.27.44-2.92,1.31-4.17,4.42-4C1010.14,480.43,1014.19,480.23,1018.21,480.23Zm-.79,28.63c-.58.31-.8.35-.81.43q-4.7,30.42-9.4,60.84c-.32,2.06.72,2.17,2.24,2.16,4.92,0,9.84-.11,14.76,0,2.28.07,2.75-.7,2.42-2.84C1023.52,549.34,1020.5,529.19,1017.42,508.86Z" transform="translate(-21.67 -197.66)"></path>
  <path class="cls-1" d="M1245.72,615.16c-10.66,0-10.64,0-12-10.42-.5-3.7-1.25-7.36-1.64-11.06-.21-2-.8-2.89-3-2.86-6.86.1-13.73.14-20.6,0-2.29-.06-2.7,1.07-3,2.86-.81,5.76-1.77,11.49-2.49,17.26-.38,3-1.25,4.7-4.87,4.33a97,97,0,0,0-12.53,0c-2.23.07-3.19-.29-2.76-2.92q8.24-50.74,16.31-101.5c1.41-8.83,2.89-17.65,4.17-26.49.42-3,1.37-4.3,4.75-4.16a188.92,188.92,0,0,0,21.94,0c4.66-.34,5.68,1.63,6.28,5.56,3.1,20.33,6.44,40.63,9.67,61,3.46,21.78,6.84,43.59,10.43,65.35.44,2.66,0,3.44-2.64,3.25S1248.4,615.16,1245.72,615.16Zm-37-43.41c.39.19.66.44.92.44q5.6.07,11.17.09c7.59,0,7.73,0,6.63-7.59-2.71-18.74-5.56-37.46-8.36-56.19l-.85-.05Q1213.49,540.11,1208.74,571.75Z" transform="translate(-21.67 -197.66)"></path>
  <path class="cls-1" d="M1062.94,544.82c.45-11.32-.89-25.37.59-39.35,1.77-16.79,12.74-26.39,29.71-26.48,4.33,0,8.63.05,12.84,1.31,12,3.55,19.36,13.61,20,27.71.25,5.06,0,10.14.13,15.21,0,1.95-.3,3-2.64,3q-7.38-.23-14.77,0c-2.53.07-3-1.13-2.93-3.27,0-4.77.14-9.56-.18-14.32-.46-6.62-4-10-10.13-10.16-6.33-.17-9.83,2.83-10.83,9.4a35.15,35.15,0,0,0-.43,5.33q0,34.68,0,69.38a34.13,34.13,0,0,0,.45,5.33c1,6.43,4.66,9.39,11,9.14,6-.23,9.5-3.46,9.87-9.89.36-6.25.29-12.53.18-18.79-.05-2.64.6-3.75,3.46-3.62,4.76.22,9.54.08,14.32,0,1.45,0,2.62,0,2.57,2.05-.17,7.9.51,15.9-.49,23.68-2.85,22.06-19.07,28-36.27,26s-26.36-13.33-26.52-32.29C1062.86,572,1062.94,559.74,1062.94,544.82Z" transform="translate(-21.67 -197.66)"></path>
  <path class="cls-1" d="M749.42,1331.8c-1.06,9.74-2,18.83-3,27.92-.53,4.89-1.23,9.77-1.55,14.67-.17,2.57-1.21,3.14-3.58,3.06-4.91-.17-9.86-.29-14.76,0-3.09.21-3.72-1.19-4-3.73q-2.72-25.34-5.57-50.66c-1.46-13-2.88-26.07-4.45-39.09-.42-3.49-.29-5.31,4.27-5.15,10.86.39,10.68.12,11.78,11,2.06,20.31,4.35,40.59,6.59,61.32,2-4.52,1.53-9.07,2-13.4,1.82-17.19,3.36-34.41,4.91-51.62.64-7.14.53-7.15,7.53-7.15,8.66,0,8.5,0,9.32,8.64,1.92,20.32,4,40.63,6,60.94.13,1.32.41,2.62.8,5.09,2.34-22.88,4.64-44.59,6.76-66.31.81-8.35.63-8.39,9.07-8.36,6.61,0,5.67-.54,5,5.46-3.2,29.94-6.62,59.85-9.89,89.77-.26,2.37-1,3.34-3.56,3.24-4.91-.2-9.85-.17-14.77,0-2.24.07-3-.56-3.25-2.88-1.27-12.75-2.72-25.49-4.13-38.22C750.79,1335,751.17,1333.45,749.42,1331.8Z" transform="translate(-21.67 -197.66)"></path>
  <path class="cls-2" d="M651.44,1254.29c211-50.73,459.52-43.53,637.34.26-13.69-1.81-27.39-3.56-41.08-5.42q-52.31-7.1-104.8-12.69c-36.94-3.88-73.94-6.8-111-8.53q-51.43-2.39-102.9-.78c-44,1.38-87.83,4.72-131.6,9.3-47.91,5-95.65,11.36-143.37,17.85A18.27,18.27,0,0,1,651.44,1254.29Z" transform="translate(-21.67 -197.66)"></path>
  <path class="cls-2" d="M1283.91,672.8c-210.81,45.34-421.54,45.12-632.17-2q14.75,2,29.49,3.91c32.67,4.39,65.37,8.57,98.13,12.24,36.47,4.09,73,7.34,109.64,9.5,38,2.25,76.06,2.81,114.11,1.93,45.35-1,90.57-4.38,135.68-9,46.89-4.83,93.64-10.89,140.33-17.38,1.6-.23,3.23-.32,4.85-.48Z" transform="translate(-21.67 -197.66)"></path>
  <path class="cls-1" d="M683.48,547.81c0-21,.06-42.07-.07-63.1,0-3.34.62-4.63,4.34-4.58,16,.23,31.93.2,47.89,0,3.4,0,4.46,1,4.22,4.29a92.1,92.1,0,0,0,0,11.63c.15,2.87-.67,3.89-3.72,3.82-9.1-.2-18.2.05-27.3-.14-3.09-.06-4.09.8-4,4q.27,16.34,0,32.67c0,3,.86,3.79,3.76,3.71,6.7-.2,13.43.08,20.13-.14,2.87-.09,3.56.89,3.44,3.56-.21,4.46-.17,9,0,13.42.07,2.21-.72,2.76-2.81,2.73-7-.11-14,.09-21-.11-2.81-.09-3.48.8-3.46,3.51.12,16,0,31.93.13,47.89,0,3.19-.56,4.56-4.1,4.28a89.12,89.12,0,0,0-13,0c-3.41.22-4.51-.68-4.48-4.32C683.58,589.88,683.48,568.85,683.48,547.81Z" transform="translate(-21.67 -197.66)"></path>
  <path class="cls-1" d="M1125.84,1333.4c1.14-1.89.67-3.52.68-5.05,0-15.22.09-30.44,0-45.66,0-2.87.72-3.79,3.74-3.79,10.32,0,10.33-.11,10.33,10,0,28-.07,56.1.08,84.15,0,3.49-.83,4.7-4.38,4.36-3.84-.36-8.8,1.2-11.29-.69s-2.58-7-3.59-10.71q-7-25.63-13.91-51.29a9.62,9.62,0,0,0-1.85-4v33.73c0,9.85-.12,19.7.07,29.54.06,2.85-.82,3.42-3.51,3.43-10.78,0-10.78.13-10.78-10.47,0-27.9.07-55.8-.09-83.71,0-3.62,1-4.69,4.5-4.35,5,.48,11.32-2,14.67,1,3.1,2.75,3.15,9,4.43,13.71,3.24,11.92,6.41,23.86,9.63,35.79C1124.87,1330.63,1125.32,1331.83,1125.84,1333.4Z" transform="translate(-21.67 -197.66)"></path>
  <path class="cls-1" d="M1011.62,1452.1c7.86,4.32,9.35,11.48,9.67,19.21.39,9.49-1,19.07,1.36,28.8-4.58,0-9-.1-13.5,0-2.22.06-2.7-1.08-3-2.93-1-5.93-.62-11.9-.72-17.86,0-3.58.19-7.19-.17-10.74a10,10,0,0,0-13.67-8.19c-2,.79-1.25,2.5-1.26,3.83-.07,10.75-.15,21.49,0,32.24,0,3-.84,4-3.74,3.64-3.8-.41-8.89,1.63-11.1-.84-1.88-2.11-.65-7.08-.65-10.78,0-27.16.13-54.32-.15-81.48-.05-4.76,1.39-5.72,5.69-5.42,8.17.56,16.41-.63,24.57.74,9.22,1.55,14.13,6.6,15.68,15.82a74.2,74.2,0,0,1,.53,15.62C1020.81,1441.26,1018.83,1448,1011.62,1452.1Zm-21.36-21c0,4,0,8,0,12.05,0,1-.25,2,1.1,2.57,6.19,2.67,13.39-1.43,13.89-8.14.25-3.4.14-6.84.12-10.26,0-9.58-2-11.37-11.61-11.28-2.64,0-3.74.62-3.58,3.46C990.43,1423.38,990.26,1427.25,990.26,1431.12Z" transform="translate(-21.67 -197.66)"></path>
  <path class="cls-1" d="M1015,1329.44c8.11,4.44,9.36,11.86,9.67,19.69.36,9.21-.88,18.49,1.34,28.26-4.79,0-9.46,0-14.13,0-1.92,0-2-1.31-2.3-2.64-1.08-4.72-.6-9.51-.69-14.27-.08-4.17.1-8.36,0-12.53-.29-8.13-5.88-12.22-13.67-10.32-2.4.58-1.46,2.3-1.47,3.53-.08,10.75-.15,21.5,0,32.24,0,2.93-.42,4.45-3.78,4-3.8-.48-8.91,1.63-11.11-.9-1.87-2.15-.6-7.1-.61-10.81,0-27.46.06-54.92-.09-82.38,0-3.49.85-4.65,4.43-4.43,8.62.53,17.31-.67,25.91.8,9.4,1.61,14.66,7.27,15.67,16.81a84.21,84.21,0,0,1,.2,16.5C1023.74,1319.78,1021.48,1325.48,1015,1329.44Zm-21.35-21.31c0,4,0,8,0,12.06,0,1-.41,2.08.8,2.76,4,2.25,12.49-.78,13.53-5.16a42.5,42.5,0,0,0,0-19.46c-.94-4.09-10.35-7.14-13.69-4.71-1,.75-.64,1.9-.65,2.89C993.62,1300.38,993.64,1304.26,993.64,1308.13Z" transform="translate(-21.67 -197.66)"></path>
  <path class="cls-1" d="M965,1451.08c0,8.79.07,17.59,0,26.38-.08,8.62-2.29,16.49-10.5,20.78a27.09,27.09,0,0,1-26.55-.29c-5.91-3.2-9-8.83-9.43-15.37a512,512,0,0,1-.06-62.06c.85-13.7,10.22-20.42,25.18-19.83,12.59.5,20.93,8.83,21.3,21.78.28,9.53.06,19.07.06,28.61Zm-15.8-.11c0-8.79,0-17.57,0-26.36,0-6.72-2.5-9.66-7.81-9.59-5.13.07-7.67,3.27-7.72,9.85,0,6.4,0,12.8,0,19.21,0,11.17,0,22.34,0,33.5,0,4.05.8,7.87,5.5,9.09,5.76,1.5,9.85-1.67,10-8C949.29,1469.44,949.16,1460.2,949.17,1451Z" transform="translate(-21.67 -197.66)"></path>
  <path class="cls-1" d="M1173.7,535.9c0,17.29.48,34.6-.13,51.87-.63,17.77-11,27.32-28.87,28-11.54.41-11.54.41-11.54-10.86,0-8.75,0-8.75,8.48-9.1,6.7-.27,10.21-3.42,10.64-10.11.33-5,.23-10.13.23-15.19,0-28.63.08-57.25-.07-85.88,0-3.59,1-4.67,4.5-4.43a87.6,87.6,0,0,0,13,0c3.58-.29,4.12,1.14,4.1,4.31-.15,17.15-.07,34.29-.07,51.44Z" transform="translate(-21.67 -197.66)"></path>
  <path class="cls-1" d="M1076.84,1377.4c-7.91,0-7.91,0-9.3-7.93-1.7-9.78-1.7-9.78-11.7-9.78-8.34,0-8.34,0-9.47,8.14-1.34,9.57-1.34,9.38-11,9.66-4.12.12-5-.66-4.26-5,5-30.12,9.77-60.28,14.47-90.45.4-2.55,1.38-3.15,3.73-3.09,5.52.14,11,.19,16.57,0,2.53-.09,3.34.94,3.69,3.2q6.33,40.17,12.77,80.32c.58,3.68.91,7.42,1.84,11s-.55,4.38-3.71,4A28.48,28.48,0,0,0,1076.84,1377.4ZM1057,1299.5l-.41,0c-1.86,12.19-3.8,24.37-5.52,36.58-.45,3.19-2.65,7.67-.69,9.29s6.53.41,9.92.76c3.21.33,3.67-1,3.24-3.78C1061.25,1328.06,1059.12,1313.78,1057,1299.5Z" transform="translate(-21.67 -197.66)"></path>
  <path class="cls-1" d="M1174,1377.4c5.08-32,10.12-63.65,15.09-95.26.36-2.28,1.15-3.31,3.7-3.22,5.66.21,11.34.13,17,0,2,0,2.93.55,3.26,2.65,5,31.77,10.08,63.53,15.22,95.79-4.76,0-9.35-.08-13.94,0-1.94,0-2.08-1.06-2.28-2.47-.53-3.84-1.18-7.66-1.68-11.51-.32-2.47-.93-4.1-4.1-3.84-4.88.4-11-1.46-14.35.9s-2.13,9.08-2.92,13.88c-.36,2.14-.86,3.17-3.26,3.06C1181.86,1377.26,1178,1377.4,1174,1377.4Zm26.6-77.28-.56.08c-2.14,14.07-4.22,28.15-6.48,42.2-.49,3,.35,4,3.33,3.69a47.4,47.4,0,0,1,7.15,0c2.47.15,3.71-.06,3.09-3.28-1.32-6.86-2-13.83-3.08-20.75C1202.91,1314.73,1201.71,1307.43,1200.56,1300.12Z" transform="translate(-21.67 -197.66)"></path>
  <path class="cls-1" d="M1126.43,1442.94c0,11.49-.1,23,0,34.47.23,22-16.85,26.83-31.39,22.91-8.73-2.36-14.11-9.34-14.44-19.33-.43-13.26-.25-26.55-.29-39.82,0-11.94.1-23.88-.07-35.81,0-3,.88-3.72,3.77-3.73,11.94,0,11.94-.14,11.94,11.61q0,31.79,0,63.57c0,7.46,2.79,10.57,8.74,10.07,4.44-.38,6.72-3,6.92-8.26.17-4.77,0-9.55,0-14.32,0-19.55.06-39.1-.07-58.65,0-3.05.72-4.06,3.93-4,10.88.07,10.89-.06,10.89,10.89Z" transform="translate(-21.67 -197.66)"></path>
  <path class="cls-1" d="M846.84,1328c0-14.93.09-29.85-.07-44.78,0-3.19.54-4.51,4.1-4.33,6.4.31,12.84,0,19.25.1,13.76.23,21.17,6.65,22.57,20.24a97.53,97.53,0,0,1-.14,22.33c-1.56,12.28-8.6,18.59-20.82,19.08-9,.35-9,.35-9,9.49,0,7.91-.1,15.82.06,23.73.05,2.62-.46,3.82-3.4,3.58-4-.32-9.21,1.24-11.68-.76-2.63-2.11-.79-7.54-.83-11.51C846.77,1352.79,846.84,1340.4,846.84,1328Zm30.34-18v-5.81c0-9.4-1.9-11.14-11.35-10.88-2.24.06-3.18.52-3.15,3,.13,9.1,0,18.2.07,27.29,0,1-.4,2.05.93,2.67a9.41,9.41,0,0,0,13.49-8.18C877.24,1315.41,877.18,1312.73,877.18,1310Z" transform="translate(-21.67 -197.66)"></path>
  <path class="cls-1" d="M830.66,1306a7.49,7.49,0,0,0-1.34,0c-4.29.71-6.31-.31-6.08-5.42.27-5.72-3.26-8.69-8.22-8.21a6.41,6.41,0,0,0-6.12,5c-1.58,5.59-.24,10.6,2.84,15.28,3.74,5.67,9.12,9.79,14,14.38,10,9.45,14.75,20.68,12,34.58-2,9.85-8.75,16-18.69,16.86-21.12,1.8-27.76-10.72-27-28.54.08-1.81.73-2.38,2.4-2.24.74.07,1.49,0,2.23,0,3.28.07,7.28-1,9.62.54s.61,5.79.91,8.84c.43,4.44,2.85,6.9,7.09,7.06,4.7.19,7.49-1.9,8.17-6.4,1.06-7.07-1.71-12.87-6.52-17.77-4.17-4.26-8.64-8.23-12.83-12.46-9.48-9.57-12.69-21-9.37-34,2.82-11.09,11.09-16.2,24.34-15.37,10.79.68,18.1,7.35,19.65,17.93.09.59.12,1.19.2,1.78C839,1305.94,839,1305.94,830.66,1306Z" transform="translate(-21.67 -197.66)"></path>
  <path class="cls-1" d="M850.06,1428.66a16,16,0,0,0-2.68,0c-4,.7-5.08-.91-4.92-4.86.25-6.06-2.52-8.92-7.53-8.8-4.76.12-6.92,3-7.17,8.83-.27,6.48,2.63,11.5,7,15.87s8.64,8.22,12.83,12.47c9.37,9.52,12.18,20.92,9,33.76-2.19,8.91-8.68,14.27-17.77,15.07a32.93,32.93,0,0,1-12-.65c-8.88-2.5-14-8.95-15-18.94-1.12-11.12-1.12-10.88,9.89-11.21,4.22-.13,5.06,1.33,4.73,5a19.74,19.74,0,0,0,.64,6.62c.92,3.48,3.55,4.91,7.08,4.93s6.18-1.24,7.22-4.75c1.78-6.06.1-11.46-3.49-16.41-3.71-5.11-8.72-9-13.26-13.25-9.71-9.21-14.64-20.1-12.09-33.72,2.39-12.82,10.65-18.79,25-17.94,11.59.69,19.26,8.61,20,20.63C857.88,1428.66,857.88,1428.66,850.06,1428.66Z" transform="translate(-21.67 -197.66)"></path>
  <path class="cls-1" d="M866.43,1450.85c0-14.75.19-29.51-.12-44.26-.09-4.31,1.33-5.2,5.22-5,7.57.46,15.22-.63,22.76.55,11,1.72,17.17,8.5,17.74,19.63.36,7,.35,14,0,21-.57,12.55-8.17,19.87-20.8,20.51-3,.15-7-.86-8.6.68-2.18,2-.71,6.18-.75,9.4q-.18,11.85,0,23.7c0,2.26-.53,3-2.94,3.1-12.54.44-12.54.52-12.54-11.76Zm15.44-18.37c0,4.47,0,8.93,0,13.4,0,1-.37,2.19.59,2.94,3.51,2.71,12.74-.76,13.68-5.23,1.12-5.29.45-10.68.5-16,.09-10-2-11.79-11.71-11.52-2.74.08-3.19,1.15-3.11,3.48C882,1423.84,881.87,1428.16,881.87,1432.48Z" transform="translate(-21.67 -197.66)"></path>
  <path class="cls-1" d="M926.45,1328c0-15.06.09-30.13-.08-45.19,0-3.15.83-4,4-3.94,11.64.19,23.27.15,34.91,0,2.66,0,3.55.63,3.6,3.44.16,11,.27,11-10.69,11-4.17,0-8.35.11-12.53-.05-2.42-.09-3.48.53-3.42,3.2.16,7,.11,14,0,21,0,2.11.68,2.89,2.82,2.84,4.92-.12,9.85.08,14.76-.08,2.61-.09,3.61.56,3.66,3.42.18,10.84.3,10.84-10.43,10.84s-10.78,0-10.78,11c0,4.48.21,9-.06,13.42-.2,3.23.59,4.45,4.1,4.28,6.4-.31,12.83,0,19.24-.14,2.55-.07,3.23.77,3.3,3.28.26,11,.34,11-10.68,11-9.09,0-18.2-.23-27.29.11-3.93.14-4.54-1.18-4.5-4.73C926.57,1357.87,926.45,1343,926.45,1328Z" transform="translate(-21.67 -197.66)"></path>
  <path class="cls-1" d="M1058.34,1458.32c0,12.52-.09,25,.07,37.56,0,3.08-.36,4.79-4,4.28s-8.9,1.62-11.09-.91c-1.87-2.16-.59-7.1-.6-10.81,0-22.66-.09-45.32.08-68,0-3.59-1-4.93-4.49-4.36a8.55,8.55,0,0,1-1.34,0c-11.54,0-11.81-.36-10.42-12.15.2-1.71.75-2.3,2.43-2.29q21.48.06,42.94,0c1.95,0,2.45.72,2.6,2.59,1,11.85,1,12.1-10.71,11.73-4.62-.14-5.69,1.2-5.57,5.66C1058.56,1433.87,1058.34,1446.1,1058.34,1458.32Z" transform="translate(-21.67 -197.66)"></path>
  <path class="cls-1" d="M915.59,1328.58c0,14.93-.08,29.85.06,44.78,0,2.9-.39,4.51-3.79,4.08-3.93-.5-9.23,1.71-11.5-1-2-2.27-.65-7.38-.65-11.24,0-27.31.06-54.62-.1-81.94,0-3.59,1-4.79,4.47-4.36,3.67.45,8.44-1.57,10.77.79s.67,7.1.7,10.78C915.64,1303.21,915.59,1315.9,915.59,1328.58Z" transform="translate(-21.67 -197.66)"></path>
  <path class="cls-1" d="M1167.1,1328.39c0,14.93-.08,29.85.07,44.77,0,3.14-.47,4.78-4.07,4.28-3.78-.51-8.87,1.65-11.06-1-1.86-2.22-.61-7.11-.61-10.82,0-27.46.07-54.92-.1-82.38,0-3.65,1.08-4.42,4.51-4.37,11.26.15,11.26,0,11.26,11.43Z" transform="translate(-21.67 -197.66)"></path>
  <path class="cls-2" d="M1288.37,671.24l-1.95.15V671h1.95Z" transform="translate(-21.67 -197.66)"></path>
  <path class="cls-3" d="M194.52,1264.8c-36.67.36-65.05-14.65-87.61-41.33-21.32-25.22-33.59-55-42.14-86.49-2.81-10.36-4.94-20.87-6.71-31.46-.37-2.27-.22-3.31,2.18-4.3,34.44-14.13,68.76-28.57,103.85-41,3-1.09,4-.71,4.65,2.6,2.83,13.62,6.83,26.84,14.88,38.49,12.47,18,29.83,24.22,51,21.29,7.26-1,14.34-2.61,21-5.81,13.82-6.61,19.74-18.17,20-32.81.27-14.19-4.64-26-17.83-33.16-10.21-5.57-21.4-8.12-32.49-11a328.71,328.71,0,0,1-62.74-23.11c-35.87-17.78-58.87-46-71.05-83.82A288.6,288.6,0,0,1,77.73,852c-1-33.6,1.86-66.72,11.9-99,7.72-24.8,19.33-47.51,38-66C143,671.83,162,663,183.46,661.8c57.95-3.29,105.27,18.9,142.74,62.51,23.86,27.77,38.49,60.35,47.42,95.65.77,3.06.31,5-3,6.2-26.32,9.1-52.48,18.62-78.41,28.79-.69.27-1.48.29-2.14.61-3,1.47-4.14.05-4.81-2.81A95.14,95.14,0,0,0,272.44,822c-13.7-20.8-32.89-30.56-57.86-27.78-9.16,1-15.53,6.64-18.12,15.25-5.89,19.55-3,40.17,18.78,52.36,15.14,8.45,31.48,14.16,47.28,21.09,15.55,6.82,30.85,14.14,46.12,21.55,28,13.59,46.5,35.68,58.8,63.59,14.67,33.3,18.19,68.27,15.42,104.17-2.78,36.18-13.28,69.83-33.13,100.35q-46.85,72-131,89.73A121.15,121.15,0,0,1,194.52,1264.8Z" transform="translate(-21.67 -197.66)"></path>
  <path class="cls-3" d="M1878.66,1295.05c-10.25-1-20.21-3.61-30.28-5.55-24.14-4.63-48.21-9.63-72.35-14.28-3.85-.74-5.19-2.46-5.77-6.26-5.87-38.6-12-77.16-17.93-115.74-.31-2-.87-3.09-3.21-3.37-28-3.27-56-6.58-83.92-10.15-3.87-.49-3.44,2-3.79,3.86q-7.42,39.54-14.69,79.1c-1.35,7.32-2.76,14.64-4,22-.38,2.19-1,2.74-3.43,2.22-25.93-5.5-52-10.35-77.87-16.19-3.23-.73-4-1.88-3.39-5q9.23-48.51,18.24-97.08,13.32-71.38,26.59-142.78,14.1-75.56,28.24-151.12,13.59-72.71,27.2-145.41c1.64-8.81,1.57-8.68,10.3-10.59q49.32-10.81,98.59-21.89c3.52-.8,4.29.23,4.82,3.28q13.08,74.85,26.27,149.67,13.8,79,27.39,158.08,13.84,81.53,27.21,163.15,13,78.94,25.63,157.94c.31,1.9.36,3.84.54,5.77Zm-172.6-444.81-.77,0c-1.09,7.52-2.08,15.05-3.27,22.56q-10.9,68.83-22,137.67c-.46,2.9.16,3.87,3.26,3.92,13.27.19,26.53.62,39.79,1,10.13.29,10.07.31,8.44-9.68q-10.74-65.94-21.42-131.89C1708.86,866,1707.43,858.11,1706.06,850.24Z" transform="translate(-21.67 -197.66)"></path>
  <path class="cls-3" d="M1262.31,1183c-42.7-.41-81.81-11.84-115.58-38.7-31-24.67-50.39-56.76-59.24-95.31-.55-2.4-.81-3.54,2.39-4.09,27.61-4.73,55.18-9.68,82.75-14.61,9.62-1.72,9.61-1.79,12.59,7.17,9.6,28.79,31.78,44.64,62.93,44.88a91.19,91.19,0,0,0,10.71-.48c9.18-1,17.69-4,20.88-13.54,3.44-10.27,2.21-20.4-5.4-28.87-6.73-7.48-15.74-11.12-25-14.14-21.09-6.86-42.53-12.69-63-21.33-14.73-6.2-29.18-13-41.9-22.79-20.3-15.56-32-36.77-37.32-61.35-12.52-57.25,9.19-117,61.09-149.31,22.55-14,47.59-21,73.82-23.77,18.49-2,36.89-2.12,55,3,29.84,8.48,50.47,27.75,64.67,54.64a215.14,215.14,0,0,1,13.92,33.82c.84,2.59.28,3.72-2,4.86-26,13.19-52.55,25.4-79.16,37.38-3,1.33-3.27-.38-4-2.18-3.26-8-6.75-16-12.72-22.43-12.31-13.28-27.91-16.18-45-13.72a64,64,0,0,0-9.11,2.21c-10.86,3.26-17.16,11.29-17.81,22.54s4.11,18.68,15,23.4c12.79,5.53,26.53,7.83,39.9,11.37,18.43,4.9,36.64,10.38,54.54,17,23,8.55,39.29,24.29,51,45.3,16.39,29.47,21.12,61.39,19.38,94.59-1,19.46-4.09,38.5-12.11,56.46-18.16,40.65-49.53,62.91-93.77,67.19-2.68.26-5.34.61-8,.72C1268.58,1183.11,1265.44,1183,1262.31,1183Z" transform="translate(-21.67 -197.66)"></path>
  <path class="cls-3" d="M832.39,962.9q0-95.61-.1-191.23c0-4.19.76-5.54,5.25-5.34,48.75,2.17,97.55,2.39,146.34,2.14,31-.16,62.06-.18,93.05-2,3.81-.23,5,.64,4.94,4.72q-.33,41,0,81.95c0,4.32-1.43,5-5.26,5.15-46.69,1.83-93.4,1.37-140.11,1.27-4.32,0-5.44,1-5.35,5.34.29,15.08.22,30.16,0,45.23,0,3.53.92,4.48,4.46,4.46,37.47-.19,74.94-.16,112.41-.36,3.76,0,5,.64,5,4.76q-.35,39.16,0,78.35c0,3.75-1,4.7-4.73,4.62-37.31-.82-74.62-.58-111.93-.75-4.11,0-5.21,1-5.15,5.15q.35,26.42,0,52.84c0,3.63,1.07,4.52,4.54,4.43,12.08-.3,24.17-.55,36.25-.39,34.31.47,68.62,1.15,102.93,1.76a38.68,38.68,0,0,0,4,.31c2.31-.19,2.62,1,2.69,2.93,1.08,29.54.12,59.08.22,88.62,0,2.28-.59,3.1-3,3q-28.17-.78-56.36-1.36c-10.74-.24-21.48-.48-32.22-.58q-54.86-.48-109.7.35c-14.76.23-29.52.62-44.26,1.36-3.87.2-3.92-1.27-3.92-4.2.09-25.68,0-51.35,0-77Z" transform="translate(-21.67 -197.66)"></path>
  <path class="cls-3" d="M577.08,1183v-4.07l-.06-352c0-27,.11-54,0-81,0-3.37,1-3.92,4-3.46,29.65,4.43,59.37,8.29,89.22,11.11,4.05.38,4.65,1.7,4.65,5.32q-.15,149.8-.08,299.61c0,9.3,0,9.38,9.41,9q54.07-2.16,108.16-4.43c7-.29,7-.35,7,6.48,0,29.11-.07,58.22.09,87.33,0,3.76-1.1,4.6-4.74,4.78-37.69,1.83-75.3,4.82-112.85,8.57C647,1173.69,612.22,1178,577.08,1183Z" transform="translate(-21.67 -197.66)"></path>
  <path class="cls-3" d="M1527,877.17c0,53.74-.09,107.47,0,161.2q.18,82.83.67,165.65c0,5.22-.05,10.45.27,15.66.22,3.66-.84,4.44-4.46,3.72-23.83-4.75-47.69-9.29-71.54-13.87-7.91-1.51-15.81-3-23.75-4.38-2.67-.46-4-1.26-3.88-4.43.27-5.65-.08-11.33-.1-17q-.21-60.9-.37-121.78-.19-96-.33-192.1c0-25.67.14-51.35-.29-77-.35-20.6,0-41.19-.36-61.78,0-3,.89-4.13,3.75-4.61,31-5.27,62-10.81,92.78-17l.45-.07c6.61-1,6.61-1,6.61,5.67v162.1Z" transform="translate(-21.67 -197.66)"></path>
  <path class="cls-3" d="M421.78,962.19V722.65c0-6.58,0-6.69,6.65-5.52,30.23,5.32,60.43,10.76,90.68,16,3,.52,3.49,1.66,3.49,4.32q-.14,216.92-.17,433.85c0,5.52,0,11,0,16.56,0,2.58-.69,3.87-3.69,4.27-30.44,4-60.56,10-90.73,15.59-.44.09-.88.17-1.31.3-3.66,1.12-5.08.35-5-4,.25-22.09.12-44.18.12-66.26Z" transform="translate(-21.67 -197.66)"></path>
  <path class="cls-3" d="M1879,1294.65l.17.71-.53-.31Z" transform="translate(-21.67 -197.66)"></path>
  <path class="cls-1" d="M1706.06,850.24c1.37,7.87,2.8,15.74,4.08,23.62q10.74,65.94,21.42,131.89c1.63,10,1.69,10-8.44,9.68-13.26-.37-26.52-.8-39.79-1-3.1-.05-3.72-1-3.26-3.92q11.06-68.82,22-137.67c1.19-7.51,2.18-15,3.27-22.56Z" transform="translate(-21.67 -197.66)"></path>
</svg>
