<?xml version="1.0" encoding="UTF-8"?>
<svg xmlns="http://www.w3.org/2000/svg" id="Warstwa_2" data-name="Warstwa 2" viewBox="0 0 341.41 57.5">
  <defs>
    <style>      .cls-1 {        fill: #000;        stroke-width: 0px;      }    </style>
  </defs>
  <g id="Warstwa_1-2" data-name="Warstwa 1">
    <g>
      <path class="cls-1" d="M57.57,7.69v49.31h-13.71v-25.72l-15.07,7.34-15.07-7.34v25.72H0V7.69l28.96,14.39,28.61-14.39Z"></path>
      <path class="cls-1" d="M65.37,26.72c1.47-3.03,3.47-5.36,6.02-6.99,2.54-1.63,5.37-2.45,8.5-2.45,2.7,0,5.04.54,6.99,1.61,1.96,1.07,3.47,2.52,4.55,4.34v-5.46h13.71v39.24h-13.71v-5.46c-1.07,1.82-2.6,3.26-4.58,4.34-1.98,1.07-4.3,1.61-6.96,1.61-3.12,0-5.96-.82-8.5-2.45-2.54-1.63-4.55-3.98-6.02-7.03-1.47-3.05-2.2-6.61-2.2-10.67s.73-7.6,2.2-10.63ZM89.36,31.41c-1.38-1.45-3.07-2.17-5.07-2.17s-3.75.71-5.11,2.13c-1.35,1.42-2.03,3.42-2.03,5.98s.68,4.51,2.03,5.98c1.35,1.47,3.05,2.2,5.11,2.2s3.69-.72,5.07-2.17c1.38-1.45,2.06-3.45,2.06-6.02s-.69-4.5-2.06-5.95Z"></path>
      <path class="cls-1" d="M132.27,19.38c2.19-1.3,4.55-1.96,7.06-1.96v14.62h-3.85c-2.98,0-5.2.58-6.65,1.75-1.45,1.17-2.17,3.19-2.17,6.08v17.14h-13.71V17.77h13.71v6.93c1.54-2.24,3.4-4.01,5.6-5.32Z"></path>
      <path class="cls-1" d="M168.78,57.01l-10.84-16.09v16.09h-13.71V5.25h13.71v27.91l10.84-15.39h16.44l-15.46,19.73,15.74,19.52h-16.72Z"></path>
      <path class="cls-1" d="M226.77,40.15h-25.95c.14,2.15.73,3.74,1.78,4.79,1.05,1.05,2.39,1.57,4.02,1.57,2.28,0,3.92-1.03,4.9-3.08h14.62c-.61,2.7-1.78,5.12-3.53,7.24-1.75,2.12-3.95,3.79-6.61,5-2.66,1.21-5.6,1.82-8.81,1.82-3.87,0-7.31-.82-10.32-2.45-3.01-1.63-5.36-3.96-7.06-6.99-1.7-3.03-2.55-6.6-2.55-10.7s.84-7.66,2.52-10.67c1.68-3.01,4.02-5.33,7.03-6.96,3.01-1.63,6.47-2.45,10.39-2.45s7.3.79,10.28,2.38c2.98,1.59,5.32,3.86,6.99,6.82,1.68,2.96,2.52,6.45,2.52,10.46,0,1.07-.07,2.14-.21,3.22ZM212.99,33.5c0-1.68-.56-3-1.68-3.95-1.12-.96-2.52-1.43-4.2-1.43s-3.05.45-4.13,1.36c-1.07.91-1.77,2.25-2.1,4.02h12.1Z"></path>
      <path class="cls-1" d="M232.54,26.72c1.47-3.03,3.49-5.36,6.05-6.99,2.56-1.63,5.41-2.45,8.53-2.45,2.52,0,4.77.52,6.75,1.57,1.98,1.05,3.53,2.48,4.65,4.3V5.25h13.78v51.76h-13.78v-5.46c-1.07,1.82-2.59,3.26-4.55,4.34s-4.27,1.61-6.93,1.61c-3.12,0-5.96-.82-8.5-2.45-2.54-1.63-4.55-3.98-6.02-7.03-1.47-3.05-2.2-6.61-2.2-10.67s.73-7.6,2.2-10.63ZM256.53,31.41c-1.38-1.45-3.07-2.17-5.07-2.17s-3.75.71-5.11,2.13c-1.35,1.42-2.03,3.42-2.03,5.98s.68,4.51,2.03,5.98c1.35,1.47,3.05,2.2,5.11,2.2s3.69-.72,5.07-2.17c1.38-1.45,2.06-3.45,2.06-6.02s-.69-4.5-2.06-5.95Z"></path>
      <path class="cls-1" d="M281.22,12.14c-1.47-1.33-2.2-3-2.2-5s.73-3.75,2.2-5.11c1.47-1.35,3.42-2.03,5.84-2.03s4.3.68,5.77,2.03c1.47,1.35,2.2,3.05,2.2,5.11s-.73,3.67-2.2,5-3.39,1.99-5.77,1.99-4.37-.66-5.84-1.99ZM293.85,17.77v39.24h-13.71V17.77h13.71Z"></path>
      <path class="cls-1" d="M301.65,26.72c1.47-3.03,3.47-5.36,6.02-6.99,2.54-1.63,5.37-2.45,8.5-2.45,2.7,0,5.04.54,6.99,1.61,1.96,1.07,3.47,2.52,4.55,4.34v-5.46h13.71v39.24h-13.71v-5.46c-1.07,1.82-2.6,3.26-4.58,4.34-1.98,1.07-4.3,1.61-6.96,1.61-3.13,0-5.96-.82-8.5-2.45-2.54-1.63-4.55-3.98-6.02-7.03-1.47-3.05-2.2-6.61-2.2-10.67s.73-7.6,2.2-10.63ZM325.64,31.41c-1.38-1.45-3.07-2.17-5.07-2.17s-3.75.71-5.11,2.13c-1.35,1.42-2.03,3.42-2.03,5.98s.68,4.51,2.03,5.98c1.35,1.47,3.05,2.2,5.11,2.2s3.7-.72,5.07-2.17c1.38-1.45,2.06-3.45,2.06-6.02s-.69-4.5-2.06-5.95Z"></path>
    </g>
  </g>
</svg>
