<?xml version="1.0" encoding="UTF-8"?>
<svg xmlns="http://www.w3.org/2000/svg" viewBox="0 0 151.93 212.11">
  <defs>
    <style>      .cls-1 {        fill: #0894cd;      }      .cls-1, .cls-2, .cls-3, .cls-4, .cls-5, .cls-6, .cls-7, .cls-8, .cls-9 {        stroke-width: 0px;      }      .cls-2 {        fill: #231f20;      }      .cls-10 {        isolation: isolate;      }      .cls-3 {        fill: #e73330;      }      .cls-4 {        fill: #badded;      }      .cls-5 {        fill: #010101;      }      .cls-6 {        fill: #cfe1ec;        mix-blend-mode: multiply;      }      .cls-7 {        fill: #fff;      }      .cls-8 {        fill: #ffd41f;      }      .cls-9 {        fill: #39b3e8;      }    </style>
  </defs>
  <g class="cls-10">
    <g id="Warstwa_2" data-name="Warstwa 2">
      <g id="Projekt">
        <g>
          <g>
            <g>
              <g>
                <ellipse class="cls-6" cx="110.05" cy="100.97" rx="6.89" ry="1.43"></ellipse>
                <ellipse class="cls-6" cx="40.03" cy="115.73" rx="6.89" ry="1.43"></ellipse>
                <ellipse class="cls-6" cx="119.42" cy="117.36" rx="3.05" ry=".63"></ellipse>
                <ellipse class="cls-6" cx="50.57" cy="100.5" rx="3.05" ry=".63"></ellipse>
              </g>
              <path class="cls-8" d="M123.47,33.9c-1.04.03-1.55.5-1.55.5,0,0-.11-.69-.92-1.35-1.02-.84-2.27-.43-2.64.65-.64,1.88,2.16,4.8,2.16,4.8,0,0,4-.6,4.65-2.48.37-1.08-.38-2.16-1.7-2.12Z"></path>
              <path class="cls-8" d="M110.67,16.42c-.38.45-.37.85-.37.85,0,0-.33-.21-.92-.12-.74.12-1.04.8-.72,1.36.55.98,2.85.9,2.85.9,0,0,1.26-1.92.71-2.9-.32-.56-1.06-.66-1.54-.08Z"></path>
              <g>
                <ellipse class="cls-6" cx="78.04" cy="110.62" rx="28.31" ry="4.7"></ellipse>
                <g>
                  <path class="cls-9" d="M105.68,72.59c-5.41,16.44-21.22,23.88-37.93,19.37-16.67-4.49-27-22.52-21.59-38.95C56.77,20.73,90.86,7.89,107.22,4.6c-10.1,30.7,6.2,44.49-1.54,67.99Z"></path>
                  <path class="cls-1" d="M50.73,73.5c3.99,12.91,23.32,22.18,35.89,16.18,47.96-22.9-52.99-71.46-35.89-16.18Z"></path>
                  <path class="cls-7" d="M95.29,15.22c1.15,2.49-3.65,5.76-9.12,8.27-5.47,2.51-9.53,3.32-10.67.83-1.15-2.49,2.75-5.78,8.21-8.29,5.47-2.51,10.44-3.29,11.58-.8Z"></path>
                  <path class="cls-7" d="M72.42,26.78c.73,1.26-.03,3.08-1.7,4.05-1.68.97-3.63.74-4.36-.53-.73-1.26.03-3.08,1.7-4.05,1.68-.97,3.63-.74,4.36.53Z"></path>
                </g>
                <g>
                  <g>
                    <path class="cls-2" d="M75.75,70.99c1.12,2.47-1.74,5.44-7.46,3.55-5.73-1.88-5.88-6.16-3.89-7.29,1.14-.65,2.92.45,5.83,1.4,2.91.96,4.97,1.11,5.53,2.33Z"></path>
                    <path class="cls-3" d="M64.22,71.98c.79.99,2.1,1.92,4.07,2.57,2.21.73,3.98.73,5.27.32-2.51-5.05-6.74-4.11-9.34-2.89Z"></path>
                  </g>
                  <g>
                    <path class="cls-5" d="M92.55,75.91c-2.22-2.04-4.84-3.6-6.91-4.68-.21-.11-.41-.21-.61-.31,2-.51,4.92-1.01,8.5-.91.69.02,1.27-.53,1.29-1.22.02-.69-.53-1.27-1.22-1.29h0c-7.59-.21-12.46,2.06-12.57,2.11-.46.21-.74.69-.72,1.19.02.5.34.95.82,1.13h.01c.14.06,1.63.63,3.55,1.63,1.92,1,4.28,2.44,6.18,4.19.51.47,1.31.44,1.78-.07.47-.51.44-1.31-.07-1.78Z"></path>
                    <path class="cls-5" d="M51.77,53.74c-.57-.4-1.35-.26-1.75.31-.4.57-.26,1.35.31,1.75h0c2.89,2.01,4.93,4.11,6.24,5.7.02.03.04.05.06.07-.22-.04-.44-.08-.68-.12-2.31-.37-5.34-.67-8.34-.34-.69.08-1.19.7-1.11,1.39.08.69.7,1.19,1.39,1.11,2.64-.29,5.5-.03,7.66.32,1.09.18,2,.37,2.64.52.32.07.57.14.74.18.08.02.15.04.19.05h.05s.01.02.01.02c.49.14,1.01-.03,1.33-.42.32-.39.37-.94.13-1.39-.06-.11-2.63-4.83-8.86-9.17Z"></path>
                  </g>
                </g>
              </g>
              <path class="cls-8" d="M57.08,5.82c-1.38,1.03-1.62,2.15-1.62,2.15,0,0-.8-.82-2.52-.95-2.17-.16-3.48,1.57-2.96,3.37.91,3.15,7.47,4.44,7.47,4.44,0,0,4.85-4.6,3.93-7.75-.52-1.8-2.55-2.56-4.31-1.26Z"></path>
            </g>
            <path class="cls-4" d="M139.9,12.08c-.39-4.77-5.68-12.08-5.68-12.08,0,0-6.94,6.5-6.41,13.06.27,3.34,3.47,5.78,6.78,5.33,3.32-.45,5.58-2.97,5.31-6.3Z"></path>
            <path class="cls-4" d="M24.14,55.74c-.17-4.79-5.12-12.33-5.12-12.33,0,0-7.23,6.18-7,12.75.12,3.35,3.2,5.93,6.53,5.63,3.34-.3,5.71-2.71,5.6-6.06Z"></path>
            <path class="cls-4" d="M136.36,79.72c-.08-2.3-2.46-5.91-2.46-5.91,0,0-3.47,2.96-3.36,6.12.06,1.61,1.53,2.85,3.13,2.7,1.6-.14,2.74-1.3,2.68-2.9Z"></path>
          </g>
          <g>
            <g>
              <path class="cls-9" d="M53.6,127.36c-1.94-1.93-4.37-2.89-7.28-2.89h-12.73c-.28,0-.51.23-.51.51v33.29c0,.29.23.51.51.51h1.14c.28,0,.51-.23.51-.51v-13.11c0-.28.23-.51.51-.51h10.57c2.91,0,5.34-.96,7.28-2.89,1.94-1.93,2.92-4.33,2.92-7.19s-.97-5.29-2.92-7.21ZM52,140.34c-1.52,1.55-3.42,2.32-5.68,2.32h-10.57c-.28,0-.51-.23-.51-.51v-15.18c0-.28.23-.51.51-.51h10.57c2.26,0,4.16.76,5.68,2.31,1.53,1.54,2.28,3.47,2.28,5.8s-.76,4.22-2.28,5.76Z"></path>
              <path class="cls-9" d="M86.1,133.43h-.97c-.28,0-.51.23-.51.51v4.34c0,.51-.66.69-.94.27-.94-1.48-2.18-2.71-3.68-3.7-2.05-1.36-4.4-2.03-7.02-2.03-2.44,0-4.66.58-6.67,1.73-2,1.16-3.56,2.75-4.69,4.79-1.12,2.03-1.68,4.28-1.68,6.76s.56,4.73,1.68,6.76c1.12,2.04,2.69,3.63,4.69,4.79,2,1.15,4.23,1.74,6.67,1.74,2.62,0,4.97-.69,7.02-2.04,1.5-1,2.74-2.23,3.68-3.71.27-.43.94-.23.94.27v4.36c0,.29.23.51.51.51h.97c.28,0,.51-.23.51-.51v-24.33c0-.28-.23-.51-.51-.51ZM81.37,154.2c-2.16,2.17-4.84,3.26-8.05,3.26s-5.91-1.08-8.06-3.24c-2.15-2.16-3.23-4.87-3.23-8.1s1.08-5.93,3.23-8.09c2.15-2.17,4.84-3.24,8.06-3.24s5.89,1.08,8.05,3.25c2.16,2.17,3.24,4.87,3.24,8.09s-1.08,5.92-3.24,8.09Z"></path>
              <path class="cls-9" d="M117.18,160.01c0,1.08.67.93.67,1.71,0,.35-.18.56-.37.69-.3.19-.69.19-1,0-.19-.12-.37-.34-.37-.69,0-.78.67-.62.67-1.71,0-.42-.05-1.02-.46-1.26-.09-.05-.17-.08-.23-.17-.06-.09-.1-.2-.1-.31v-14.15c0-2.8-.86-5.06-2.57-6.78-1.72-1.72-3.99-2.57-6.83-2.57s-5.26.87-7.03,2.6c-1.78,1.73-2.66,4.02-2.66,6.85v14.06c0,.29-.23.51-.51.51h-.97c-.28,0-.51-.23-.51-.51v-24.33c0-.28.23-.51.51-.51h.97c.29,0,.51.23.51.51v2.96c0,.49.63.7.91.3.82-1.15,1.85-2.08,3.1-2.82,1.76-1.04,3.84-1.55,6.24-1.55,3.25,0,5.87.98,7.85,2.95,1.99,1.97,2.98,4.58,2.98,7.83v14.67c0,.11-.04.22-.1.31-.08.12-.22.15-.32.24-.06.05-.11.11-.16.18-.13.2-.19.45-.21.69-.01.11-.01.21-.01.32Z"></path>
            </g>
            <g>
              <path class="cls-9" d="M20.75,202.39l-9.57-11.27c-.31-.37-.87-.37-1.19-.01l-2.06,2.33c-.13.14-.2.33-.2.52v7.92c0,.44-.35.79-.79.79H.79c-.44,0-.79-.35-.79-.79v-32.74c0-.44.35-.79.79-.79h6.14c.44,0,.79.35.79.79v11.9c0,.73.91,1.07,1.39.52l11.15-12.93c.15-.17.37-.27.6-.27h7.66c.68,0,1.04.81.59,1.31l-13.08,14.68c-.26.3-.27.74,0,1.04l13.88,15.97c.44.51.08,1.31-.6,1.31h-7.96c-.23,0-.45-.1-.6-.28Z"></path>
              <path class="cls-9" d="M47.24,176.9h1.09v7.46h-1.09c-2.19,0-3.87.58-5.06,1.75-1.19,1.17-1.79,2.74-1.79,4.74v11.04c0,.44-.35.79-.79.79h-5.68c-.44,0-.79-.35-.79-.79v-23.77c0-.44.35-.79.79-.79h5.68c.44,0,.79.35.79.79v.2c0,.67.78,1.03,1.3.6,1.6-1.33,3.45-2,5.55-2Z"></path>
              <path class="cls-9" d="M63.68,203.27c-3.9,0-7.16-1.27-9.77-3.81-2.61-2.54-3.92-5.7-3.92-9.47s1.31-6.93,3.92-9.47c2.61-2.54,5.87-3.81,9.77-3.81,2.57,0,4.91.58,6.99,1.74,2.09,1.16,3.72,2.75,4.91,4.78,1.18,2.03,1.77,4.29,1.77,6.76s-.59,4.73-1.77,6.76c-1.18,2.03-2.82,3.63-4.91,4.78-2.09,1.16-4.42,1.74-6.99,1.74ZM59.23,194.46c1.18,1.2,2.66,1.8,4.44,1.8s3.26-.6,4.44-1.8c1.18-1.2,1.77-2.69,1.77-4.47s-.59-3.27-1.77-4.47c-1.18-1.2-2.66-1.8-4.44-1.8s-3.26.6-4.44,1.8c-1.18,1.2-1.77,2.69-1.77,4.47s.59,3.27,1.77,4.47Z"></path>
              <path class="cls-9" d="M96.54,176.71c3.5,0,6.41,1.27,8.74,3.8,2.33,2.53,3.5,5.7,3.5,9.48s-1.17,6.95-3.5,9.48c-2.33,2.53-5.25,3.8-8.74,3.8-2.46,0-4.59-.68-6.4-2.03-.52-.39-1.25-.02-1.25.63v9.45c0,.44-.35.79-.79.79h-5.68c-.44,0-.79-.35-.79-.79v-33.22c0-.44.35-.79.79-.79h5.68c.44,0,.79.35.79.79h0c0,.65.74,1.02,1.25.63,1.8-1.35,3.93-2.03,6.4-2.03ZM90.66,194.46c1.18,1.2,2.66,1.8,4.44,1.8s3.26-.6,4.44-1.8c1.18-1.2,1.77-2.69,1.77-4.47s-.59-3.27-1.77-4.47c-1.18-1.2-2.66-1.8-4.44-1.8s-3.26.6-4.44,1.8c-1.18,1.2-1.77,2.69-1.77,4.47s.59,3.27,1.77,4.47Z"></path>
              <path class="cls-9" d="M113.15,201.88v-34.24c0-.44.35-.79.79-.79h5.68c.44,0,.79.35.79.79v34.24c0,.44-.35.79-.79.79h-5.68c-.44,0-.79-.35-.79-.79Z"></path>
              <path class="cls-9" d="M145.46,177.31h5.68c.44,0,.79.35.79.79v23.77c0,.44-.35.79-.79.79h-5.68c-.44,0-.79-.35-.79-.79h0c0-.65-.74-1.02-1.25-.63-1.8,1.35-3.94,2.03-6.42,2.03-3.48,0-6.39-1.27-8.73-3.81-2.34-2.54-3.51-5.7-3.51-9.47s1.17-6.93,3.51-9.47c2.34-2.54,5.25-3.81,8.73-3.81,2.48,0,4.62.68,6.42,2.03.52.39,1.25.01,1.25-.63h0c0-.44.35-.79.79-.79ZM138.45,196.26c1.78,0,3.26-.6,4.44-1.8,1.18-1.2,1.77-2.69,1.77-4.47s-.59-3.27-1.77-4.47c-1.18-1.2-2.66-1.8-4.44-1.8s-3.23.6-4.41,1.8c-1.17,1.2-1.76,2.69-1.76,4.47s.59,3.27,1.76,4.47c1.17,1.2,2.64,1.8,4.41,1.8Z"></path>
            </g>
          </g>
        </g>
      </g>
    </g>
  </g>
</svg>
